<svg width="60" height="60" viewBox="0 0 60 60" fill="none" xmlns="http://www.w3.org/2000/svg">
<circle cx="30" cy="30" r="30" fill="#EA003D"/>
<path d="M29.2727 40.3182C27.7727 40.3182 26.4356 40.0606 25.2614 39.5455C24.0947 39.0303 23.1667 38.3144 22.4773 37.3977C21.7955 36.4735 21.4242 35.4015 21.3636 34.1818H24.2273C24.2879 34.9318 24.5455 35.5795 25 36.125C25.4545 36.6629 26.0492 37.0795 26.7841 37.375C27.5189 37.6705 28.3333 37.8182 29.2273 37.8182C30.2273 37.8182 31.1136 37.6439 31.8864 37.2955C32.6591 36.947 33.2652 36.4621 33.7045 35.8409C34.1439 35.2197 34.3636 34.5 34.3636 33.6818C34.3636 32.8258 34.1515 32.072 33.7273 31.4205C33.303 30.7614 32.6818 30.2462 31.8636 29.875C31.0455 29.5038 30.0455 29.3182 28.8636 29.3182H27V26.8182H28.8636C29.7879 26.8182 30.5985 26.6515 31.2955 26.3182C32 25.9848 32.5492 25.5152 32.9432 24.9091C33.3447 24.303 33.5455 23.5909 33.5455 22.7727C33.5455 21.9848 33.3712 21.2992 33.0227 20.7159C32.6742 20.1326 32.1818 19.678 31.5455 19.3523C30.9167 19.0265 30.1742 18.8636 29.3182 18.8636C28.5152 18.8636 27.7576 19.0114 27.0455 19.3068C26.3409 19.5947 25.7652 20.0152 25.3182 20.5682C24.8712 21.1136 24.6288 21.7727 24.5909 22.5455H21.8636C21.9091 21.3258 22.2765 20.2576 22.9659 19.3409C23.6553 18.4167 24.5568 17.697 25.6705 17.1818C26.7917 16.6667 28.0227 16.4091 29.3636 16.4091C30.803 16.4091 32.0379 16.7008 33.0682 17.2841C34.0985 17.8598 34.8902 18.6212 35.4432 19.5682C35.9962 20.5152 36.2727 21.5379 36.2727 22.6364C36.2727 23.947 35.928 25.0644 35.2386 25.9886C34.5568 26.9129 33.6288 27.553 32.4545 27.9091V28.0909C33.9242 28.3333 35.072 28.9583 35.8977 29.9659C36.7235 30.9659 37.1364 32.2045 37.1364 33.6818C37.1364 34.947 36.7917 36.0833 36.1023 37.0909C35.4205 38.0909 34.4886 38.8788 33.3068 39.4545C32.125 40.0303 30.7803 40.3182 29.2727 40.3182Z" fill="white"/>
</svg>
