<svg width="60" height="60" viewBox="0 0 60 60" fill="none" xmlns="http://www.w3.org/2000/svg">
<circle cx="30" cy="30" r="30" fill="#EA003D"/>
<path d="M22.4091 41V38.9545L30.0909 30.5455C30.9924 29.5606 31.7348 28.7045 32.3182 27.9773C32.9015 27.2424 33.3333 26.553 33.6136 25.9091C33.9015 25.2576 34.0455 24.5758 34.0455 23.8636C34.0455 23.0455 33.8485 22.3371 33.4545 21.7386C33.0682 21.1402 32.5379 20.678 31.8636 20.3523C31.1894 20.0265 30.4318 19.8636 29.5909 19.8636C28.697 19.8636 27.9167 20.0492 27.25 20.4205C26.5909 20.7841 26.0795 21.2955 25.7159 21.9545C25.3598 22.6136 25.1818 23.3864 25.1818 24.2727H22.5C22.5 22.9091 22.8144 21.7121 23.4432 20.6818C24.072 19.6515 24.928 18.8485 26.0114 18.2727C27.1023 17.697 28.3258 17.4091 29.6818 17.4091C31.0455 17.4091 32.2538 17.697 33.3068 18.2727C34.3598 18.8485 35.1856 19.625 35.7841 20.6023C36.3826 21.5795 36.6818 22.6667 36.6818 23.8636C36.6818 24.7197 36.5265 25.5568 36.2159 26.375C35.9129 27.1856 35.3826 28.0909 34.625 29.0909C33.875 30.0833 32.8333 31.2955 31.5 32.7273L26.2727 38.3182V38.5H37.0909V41H22.4091Z" fill="white"/>
</svg>
